<?xml version="1.0" encoding="UTF-8" standalone="no"?>
<svg width="65px" height="101px" viewBox="0 0 65 101" version="1.1" xmlns="http://www.w3.org/2000/svg" xmlns:xlink="http://www.w3.org/1999/xlink" xmlns:sketch="http://www.bohemiancoding.com/sketch/ns">
    <!-- Generator: Sketch 3.4.4 (17249) - http://www.bohemiancoding.com/sketch -->
    <title>Fill 1</title>
    <desc>Created with Sketch.</desc>
    <defs></defs>
    <g id="Page-1" stroke="none" stroke-width="1" fill="none" fill-rule="evenodd" sketch:type="MSPage">
        <g id="Desktop-HD" sketch:type="MSArtboardGroup" transform="translate(-940.000000, -424.000000)" fill="#FFFFFF">
            <g id="Logo" sketch:type="MSLayerGroup" transform="translate(435.000000, 424.000000)">
                <g id="Hover" transform="translate(112.211336, 0.000000)" sketch:type="MSShapeGroup">
                    <path d="M422.219572,53.7139645 C421.060658,52.1317976 419.865808,50.8278635 418.638018,49.8021621 C417.408731,48.7779647 416.029713,47.9853773 414.500964,47.4274078 C415.613462,46.8679344 416.655586,46.1475371 417.630332,45.2617041 C418.60358,44.3773751 419.623245,43.2824915 420.690823,41.9785574 L454.555371,0 L438.421909,0 C436.475413,0 434.862815,0.29176842 433.590106,0.873801298 C433.055568,1.11744297 432.485095,1.40469951 432.019433,1.86190363 L432.019433,1.86340759 C431.306716,2.42288105 430.611966,3.11620704 429.938179,3.98248853 L428.927498,5.26687117 C423.439875,11.6932962 415.376888,22.4932396 415.376888,22.4932396 L413.273174,25.1687861 L413.273174,25.1011079 C413.273174,25.1011079 403.492778,38.1509768 399.65818,41.9785574 C398.250713,43.3832569 397.289443,44.1938918 396.397049,45.0075347 C395.423801,45.8933677 394.649694,46.4558491 393.468321,47.4274078 C394.625738,47.9628179 403.489783,58.7898326 404.416615,60.0005212 C404.416615,60.0005212 425.944867,87.8192864 432.857924,97.2987522 C433.694917,98.4462743 434.51544,99.4283608 435.605478,100.057016 C435.641414,100.078072 435.68783,100.090104 435.723766,100.109655 C435.740236,100.121687 435.776171,100.148758 435.786652,100.154774 C436.873696,100.78343 438.351536,101 440.578028,101 L457.127741,101 L422.219572,53.7139645 Z" id="Fill-1" transform="translate(425.298031, 50.500000) scale(-1, 1) translate(-425.298031, -50.500000) "></path>
                </g>
            </g>
        </g>
    </g>
</svg>