<?xml version="1.0" encoding="UTF-8" standalone="no"?>
<svg width="112px" height="101px" viewBox="0 0 112 101" version="1.1" xmlns="http://www.w3.org/2000/svg" xmlns:xlink="http://www.w3.org/1999/xlink" xmlns:sketch="http://www.bohemiancoding.com/sketch/ns">
    <!-- Generator: Sketch 3.4.4 (17249) - http://www.bohemiancoding.com/sketch -->
    <title>JK</title>
    <desc>Created with Sketch.</desc>
    <defs></defs>
    <g id="Page-1" stroke="none" stroke-width="1" fill="none" fill-rule="evenodd" sketch:type="MSPage">
        <g id="Desktop-HD" sketch:type="MSArtboardGroup" transform="translate(-435.000000, -424.000000)" fill="#FFFFFF">
            <g id="Logo" sketch:type="MSLayerGroup" transform="translate(435.000000, 424.000000)">
                <path d="M47.4560617,64.3856406 C47.4560617,70.0053461 46.7674557,75.0717084 45.3917245,79.5832401 C44.0174742,84.0977467 41.964984,87.9428866 39.2372156,91.1201473 C36.5079664,94.2988954 33.1049198,96.7398527 29.0236333,98.4430191 C24.9423469,100.147673 20.1976292,101 14.7865186,101 C12.3119796,101 9.88038582,100.849764 7.49766088,100.550781 C5.1119742,100.250309 2.61374115,99.7787776 0,99.1346981 L0.962567563,88.0812224 C1.0543817,87.0682474 1.43348523,86.2501325 2.09839729,85.6283652 C2.76182847,85.0065979 3.73772389,84.6957143 5.02164093,84.6957143 C5.80058022,84.6957143 6.82090184,84.8578498 8.08112491,85.1791458 C9.34282885,85.5019293 10.9362484,85.6625773 12.8613835,85.6625773 C15.4751247,85.6625773 17.7897294,85.2832695 19.8081596,84.5231664 C21.823628,83.7630633 23.5103425,82.5537408 24.8623797,80.8966863 C26.2144169,79.2381443 27.2362194,77.0857585 27.9233446,74.4365538 C28.6104697,71.790324 28.9555132,68.5773638 28.9555132,64.800648 L28.9555132,0 L47.4560617,0 L47.4560617,64.3856406 Z M77.5493298,53.1255538 C76.4031339,51.5607231 75.2213971,50.2710766 74.0070811,49.2566141 C72.7912842,48.2436392 71.4274001,47.4597364 69.9154285,46.9078807 C71.0157173,46.3545376 72.046405,45.6420339 73.0104535,44.7659072 C73.973021,43.891268 74.9814957,42.8083814 76.0373582,41.5187349 L109.530267,0.000148748159 L93.5738584,0.000148748159 C91.6487232,0.000148748159 90.0538228,0.288720177 88.7950806,0.864375552 C87.5318958,1.44003093 86.3294268,2.46490574 85.183231,3.939 L57.7411702,38.8249057 C56.9163238,39.8854801 55.9300623,40.6559956 54.7838665,41.1394271 C54.1648615,41.4012239 53.4510806,41.5856716 52.6573326,41.7061576 L52.6573326,56.0395302 C54.3425662,56.1540663 56.06186,56.3905758 56.8482037,56.7520339 C57.9929186,57.2815773 59.0250872,58.1458041 59.9417477,59.3432268 L88.0709337,96.2327703 C88.8054467,97.4316804 89.7102603,98.3390442 90.7883359,98.9608115 C91.8649307,99.5825788 93.5042573,99.8934624 95.7063157,99.8934624 L112.074407,99.8934624 L77.5493298,53.1255538 Z" id="JK" sketch:type="MSShapeGroup"></path>
            </g>
        </g>
    </g>
</svg>