<?xml version="1.0" encoding="UTF-8" standalone="no"?>
<svg width="42px" height="45px" viewBox="0 0 42 45" version="1.1" xmlns="http://www.w3.org/2000/svg" xmlns:xlink="http://www.w3.org/1999/xlink" xmlns:sketch="http://www.bohemiancoding.com/sketch/ns">
    <!-- Generator: Sketch 3.5 (25232) - http://www.bohemiancoding.com/sketch -->
    <title>Fill 1 Copy</title>
    <desc>Created with Sketch.</desc>
    <defs></defs>
    <g id="Page-1" stroke="none" stroke-width="1" fill="none" fill-rule="evenodd" sketch:type="MSPage">
        <g id="Desktop-HD-Copy" sketch:type="MSArtboardGroup" transform="translate(-743.000000, -1463.000000)" fill="#000000">
            <g id="Group" sketch:type="MSLayerGroup" transform="translate(525.000000, 1463.000000)">
                <path d="M249.350763,23.8471255 C249.780016,23.2740151 250.222579,22.8016893 250.677343,22.4301481 C251.132661,22.0591517 251.643438,21.7720517 252.209675,21.5699376 C251.797614,21.3672788 251.41162,21.1063283 251.050582,20.7854519 C250.690098,20.4651202 250.312422,20.068519 249.917,19.5961932 L237.373838,4.3902439 L243.349545,4.3902439 C244.070512,4.3902439 244.667806,4.49593157 245.139207,4.70676212 C245.337196,4.79501677 245.548494,4.89907009 245.720972,5.06468376 L245.720972,5.06522854 C245.984957,5.26788737 246.242286,5.51903177 246.491852,5.83282608 L246.8662,6.29806973 C248.898772,8.62592232 251.885239,12.5380003 251.885239,12.5380003 L252.664438,13.5071671 L252.664438,13.482652 C252.664438,13.482652 256.28702,18.2097236 257.707325,19.5961932 C258.22864,20.1050194 258.584686,20.3986568 258.915222,20.6933837 C259.275705,21.0142602 259.562429,21.2180086 260,21.5699376 C259.571302,21.76388 256.288129,25.6857641 255.944838,26.1243134 C255.944838,26.1243134 247.970943,36.2011422 245.410402,39.6349018 C245.100386,40.0505703 244.79647,40.4063128 244.392729,40.6340316 C244.379419,40.6416585 244.362226,40.6460168 244.348916,40.6530989 C244.342816,40.6574572 244.329506,40.6672633 244.325624,40.6694424 C243.922991,40.8971612 243.375611,40.9756098 242.550936,40.9756098 L236.421053,40.9756098 L249.350763,23.8471255 Z M223.975462,42.0610385 L235.796072,0.713327144 L236,0 L235.319878,0 L233.176244,0 C232.445266,0 231.80454,0.25465913 231.276635,0.759533942 C230.768021,1.24595962 230.387285,1.92764469 230.129467,2.7940243 L218.205227,44.2858857 L218,45 L218.681195,45 L220.804414,45 C221.124154,45 221.448062,44.9322196 221.77431,44.799093 C222.096458,44.6676394 222.400684,44.4770736 222.685944,44.2291817 C222.973142,43.9796061 223.226296,43.6729334 223.445232,43.3113282 C223.662903,42.9518134 223.839117,42.5349746 223.975191,42.0619823 L223.975462,42.0610385 Z" id="Fill-1-Copy" sketch:type="MSShapeGroup"></path>
            </g>
        </g>
    </g>
</svg>