<?xml version="1.0" encoding="UTF-8" standalone="no"?>
<svg width="42px" height="45px" viewBox="0 0 42 45" version="1.1" xmlns="http://www.w3.org/2000/svg" xmlns:xlink="http://www.w3.org/1999/xlink" xmlns:sketch="http://www.bohemiancoding.com/sketch/ns">
    <!-- Generator: Sketch 3.4.4 (17249) - http://www.bohemiancoding.com/sketch -->
    <title>Fill 1 Copy</title>
    <desc>Created with Sketch.</desc>
    <defs></defs>
    <g id="Page-1" stroke="none" stroke-width="1" fill="none" fill-rule="evenodd" sketch:type="MSPage">
        <g id="Desktop-HD-Copy" sketch:type="MSArtboardGroup" transform="translate(-1078.000000, -1467.000000)" fill="#FFFFFF">
            <path d="M1109.35076,1490.84713 C1109.78002,1490.27402 1110.22258,1489.80169 1110.67734,1489.43015 C1111.13266,1489.05915 1111.64344,1488.77205 1112.20967,1488.56994 C1111.79761,1488.36728 1111.41162,1488.10633 1111.05058,1487.78545 C1110.6901,1487.46512 1110.31242,1487.06852 1109.917,1486.59619 L1097.37384,1471.39024 L1103.34955,1471.39024 C1104.07051,1471.39024 1104.66781,1471.49593 1105.13921,1471.70676 C1105.3372,1471.79502 1105.54849,1471.89907 1105.72097,1472.06468 L1105.72097,1472.06523 C1105.98496,1472.26789 1106.24229,1472.51903 1106.49185,1472.83283 L1106.8662,1473.29807 C1108.89877,1475.62592 1111.88524,1479.538 1111.88524,1479.538 L1112.66444,1480.50717 L1112.66444,1480.48265 C1112.66444,1480.48265 1116.28702,1485.20972 1117.70733,1486.59619 C1118.22864,1487.10502 1118.58469,1487.39866 1118.91522,1487.69338 C1119.27571,1488.01426 1119.56243,1488.21801 1120,1488.56994 C1119.5713,1488.76388 1116.28813,1492.68576 1115.94484,1493.12431 C1115.94484,1493.12431 1107.97094,1503.20114 1105.4104,1506.6349 C1105.10039,1507.05057 1104.79647,1507.40631 1104.39273,1507.63403 C1104.37942,1507.64166 1104.36223,1507.64602 1104.34892,1507.6531 C1104.34282,1507.65746 1104.32951,1507.66726 1104.32562,1507.66944 C1103.92299,1507.89716 1103.37561,1507.97561 1102.55094,1507.97561 L1096.42105,1507.97561 L1109.35076,1490.84713 Z M1083.97546,1509.06104 L1095.79607,1467.71333 L1096,1467 L1095.31988,1467 L1093.17624,1467 C1092.44527,1467 1091.80454,1467.25466 1091.27664,1467.75953 C1090.76802,1468.24596 1090.38728,1468.92764 1090.12947,1469.79402 L1078.20523,1511.28589 L1078,1512 L1078.6812,1512 L1080.80441,1512 C1081.12415,1512 1081.44806,1511.93222 1081.77431,1511.79909 C1082.09646,1511.66764 1082.40068,1511.47707 1082.68594,1511.22918 C1082.97314,1510.97961 1083.2263,1510.67293 1083.44523,1510.31133 C1083.6629,1509.95181 1083.83912,1509.53497 1083.97519,1509.06198 L1083.97546,1509.06104 Z" id="Fill-1-Copy" sketch:type="MSShapeGroup"></path>
        </g>
    </g>
</svg>