<?xml version="1.0" encoding="UTF-8" standalone="no"?>
<svg width="42px" height="45px" viewBox="0 0 42 45" version="1.1" xmlns="http://www.w3.org/2000/svg" xmlns:xlink="http://www.w3.org/1999/xlink" xmlns:sketch="http://www.bohemiancoding.com/sketch/ns">
    <!-- Generator: Sketch 3.4.4 (17249) - http://www.bohemiancoding.com/sketch -->
    <title>Rectangle 10</title>
    <desc>Created with Sketch.</desc>
    <defs></defs>
    <g id="Page-1" stroke="none" stroke-width="1" fill="none" fill-rule="evenodd" sketch:type="MSPage">
        <g id="Desktop-HD-Copy" sketch:type="MSArtboardGroup" transform="translate(-860.000000, -1469.000000)" fill="#FFFFFF">
            <path d="M877.472205,1496.58682 C877.472205,1498.64552 877.218676,1500.50152 876.712164,1502.15426 C876.206198,1503.80809 875.450519,1505.2167 874.446219,1506.38065 C873.441374,1507.54514 872.188452,1508.43935 870.685818,1509.06328 C869.183185,1509.68776 867.436292,1510 865.444048,1510 C864.532981,1510 863.637725,1509.94496 862.760462,1509.83543 C861.882109,1509.72536 860.962318,1509.55262 860,1509.31667 L860.354395,1505.26738 C860.388199,1504.89629 860.527776,1504.59658 860.77258,1504.36881 C861.01684,1504.14103 861.376142,1504.02714 861.84885,1504.02714 C862.135637,1504.02714 862.511295,1504.08654 862.97528,1504.20424 C863.43981,1504.32249 864.026469,1504.38134 864.735259,1504.38134 C865.697577,1504.38134 866.54976,1504.24239 867.292898,1503.96393 C868.034946,1503.68548 868.655955,1503.24246 869.153743,1502.63542 C869.651531,1502.02784 870.027735,1501.23934 870.280718,1500.26884 C870.533701,1499.29943 870.660738,1498.1224 870.660738,1496.73885 L870.660738,1473 L877.472205,1473 L877.472205,1496.58682 Z M889.288679,1492.46184 C888.866677,1491.88858 888.431589,1491.41614 887.984507,1491.0445 C887.536879,1490.67341 887.034729,1490.38624 886.478057,1490.18408 C886.883157,1489.98137 887.262632,1489.72035 887.617572,1489.39939 C887.971967,1489.07898 888.343263,1488.68228 888.732007,1488.20983 L901.063308,1473.00005 L895.188534,1473.00005 C894.479744,1473.00005 893.892539,1473.10577 893.4291,1473.31665 C892.964025,1473.52754 892.521304,1473.90299 892.099302,1474.443 L881.995781,1487.22299 C881.692092,1487.61151 881.328974,1487.89378 880.906972,1488.07088 C880.679069,1488.16678 880.416272,1488.23435 880.124032,1488.27849 L880.124032,1493.52933 C880.744496,1493.57129 881.377499,1493.65793 881.667012,1493.79035 C882.088469,1493.98434 882.46849,1494.30094 882.805982,1494.7396 L893.162486,1508.25359 C893.432917,1508.69279 893.766048,1509.02519 894.16297,1509.25297 C894.559347,1509.48075 895.162908,1509.59463 895.973654,1509.59463 L902,1509.59463 L889.288679,1492.46184 Z" id="JK-Copy" sketch:type="MSShapeGroup"></path>
        </g>
    </g>
</svg>