<?xml version="1.0" encoding="UTF-8" standalone="no"?>
<svg width="42px" height="45px" viewBox="0 0 42 45" version="1.1" xmlns="http://www.w3.org/2000/svg" xmlns:xlink="http://www.w3.org/1999/xlink" xmlns:sketch="http://www.bohemiancoding.com/sketch/ns">
    <!-- Generator: Sketch 3.5 (25232) - http://www.bohemiancoding.com/sketch -->
    <title>Rectangle 10</title>
    <desc>Created with Sketch.</desc>
    <defs></defs>
    <g id="Page-1" stroke="none" stroke-width="1" fill="none" fill-rule="evenodd" sketch:type="MSPage">
        <g id="Desktop-HD-Copy" sketch:type="MSArtboardGroup" transform="translate(-525.000000, -1465.000000)" fill="#000000">
            <g id="Group" sketch:type="MSLayerGroup" transform="translate(525.000000, 1463.000000)">
                <path d="M17.4722046,29.5868189 C17.4722046,31.6455228 17.2186761,33.5015169 16.7121642,35.1542563 C16.2061976,36.8080854 15.4505191,38.216701 14.446219,39.380648 C13.4413736,40.5451399 12.188452,41.439352 10.6858184,42.0632842 C9.18318486,42.6877614 7.43629153,43 5.44404802,43 C4.532981,43 3.63772543,42.9449632 2.76046221,42.8354345 C1.88210854,42.7253608 0.962317953,42.5526215 0,42.3166716 L0.354394714,38.2673785 C0.388198517,37.8962887 0.527775512,37.5965832 0.772580475,37.3688071 C1.01684022,37.1410309 1.37614193,37.0271429 1.84884996,37.0271429 C2.13563707,37.0271429 2.51129546,37.086539 2.97527993,37.2042415 C3.43980961,37.322489 4.02646917,37.3813402 4.7352586,37.3813402 C5.69757655,37.3813402 6.54975953,37.2423859 7.29289798,36.9639323 C8.03494599,36.6854786 8.65595457,36.2424595 9.15374284,35.6354197 C9.65153111,35.0278351 10.0277347,34.2393373 10.280718,33.2688365 C10.5337013,32.2994256 10.6607382,31.1224006 10.6607382,29.7388513 L10.6607382,6 L17.4722046,6 L17.4722046,29.5868189 Z M29.2886795,25.4618365 C28.8666771,24.8885817 28.4315895,24.416137 27.9845069,24.0445022 C27.5368791,23.6734124 27.0347291,23.3862401 26.4780568,23.1840751 C26.8831572,22.9813652 27.2626321,22.720349 27.6175721,22.3993918 C27.9719668,22.0789794 28.3432634,21.6822784 28.7320071,21.2098336 L41.0633075,6.00005449 L35.1885336,6.00005449 C34.4797442,6.00005449 33.8925394,6.10576878 33.4291002,6.31665243 C32.9640253,6.52753608 32.5213045,6.90298527 32.0993021,7.443 L21.9957815,20.2229853 C21.6920925,20.6115125 21.3289742,20.8937806 20.9069719,21.0708792 C20.6790688,21.166785 20.4162715,21.2343549 20.1240322,21.2784934 L20.1240322,26.5293328 C20.7444955,26.5712916 21.377499,26.6579337 21.6670122,26.790349 C22.0884693,26.9843402 22.4684895,27.3009381 22.8059823,27.7395979 L33.1624863,41.2535891 C33.4329167,41.6927938 33.7660477,42.0251944 34.1629698,42.2529705 C34.5593467,42.4807467 35.1629081,42.5946348 35.9736542,42.5946348 L42,42.5946348 L29.2886795,25.4618365 Z" id="JK-Copy" sketch:type="MSShapeGroup"></path>
            </g>
        </g>
    </g>
</svg>